<svg width="868" height="902" viewBox="0 0 868 902" fill="none" xmlns="http://www.w3.org/2000/svg">
<path d="M520.611 900.996V800.996L390.708 725.996V625.996L260.804 550.996V450.996L130.9 375.996V275.996L0.996094 200.996V600.996L520.611 900.996ZM520.611 900.996V900.996Z" stroke="#EB3F3F"/>
<rect x="0.433013" y="0.25" width="399" height="99" transform="matrix(0.866025 -0.5 0 1 130.958 276.213)" fill="#EB3F3F" stroke="#EB3F3F"/>
<rect x="0.866025" width="399" height="149" transform="matrix(0.866025 -0.5 0.866025 0.5 1.11212 201.429)" stroke="#EB3F3F"/>
<rect x="0.433013" y="0.25" width="399" height="99" transform="matrix(0.866025 -0.5 0 1 260.862 451.213)" fill="#EB3F3F" stroke="#EB3F3F"/>
<rect x="0.866025" width="399" height="149" transform="matrix(0.866025 -0.5 0.866025 0.5 131.016 376.429)" stroke="#EB3F3F"/>
<rect x="0.433013" y="0.25" width="399" height="99" transform="matrix(0.866025 -0.5 0 1 390.766 626.213)" fill="#EB3F3F" stroke="#EB3F3F"/>
<rect x="0.866025" width="399" height="149" transform="matrix(0.866025 -0.5 0.866025 0.5 260.92 551.429)" stroke="#EB3F3F"/>
<rect x="0.433013" y="0.25" width="399" height="99" transform="matrix(0.866025 -0.5 0 1 520.669 801.213)" fill="#EB3F3F" stroke="#EB3F3F"/>
<rect x="0.866025" width="399" height="149" transform="matrix(0.866025 -0.5 0.866025 0.5 390.824 726.429)" stroke="#EB3F3F"/>
</svg>
