<svg width="470" height="557" viewBox="0 0 470 557" fill="none" xmlns="http://www.w3.org/2000/svg">
<path fill-rule="evenodd" clip-rule="evenodd" d="M221.627 1.99609C230.545 1.99609 239.165 2.59147 240.652 3.78223C242.435 4.97299 241.543 9.43833 238.571 14.2014C235.895 18.9644 229.058 26.1089 223.707 29.9789C218.654 34.1465 206.763 40.6957 197.845 44.5657C188.927 48.4356 165.443 57.664 145.824 64.5109C126.204 71.6554 98.2611 82.9676 83.3978 89.8145C68.5345 96.3636 45.9422 109.462 32.8625 118.393C20.0801 127.323 7.59488 135.361 5.51402 136.849C2.83862 138.04 1.64956 137.147 1.64956 133.575C1.35229 130.3 12.6484 120.774 31.9707 107.08C50.1039 94.5775 85.1814 74.93 117.583 59.1525C159.795 38.6119 176.442 29.0858 188.927 17.4759C204.385 3.18685 206.169 2.29378 221.627 1.99609V1.99609ZM94.0993 1.99609L85.7759 11.2245C81.3169 16.2852 60.8055 35.3373 40.2942 53.4964C5.21675 84.4561 3.13589 85.9445 2.24409 78.5023C1.64956 71.9531 6.70308 65.1063 27.5117 43.0772C41.4832 27.8951 55.1575 12.4152 57.5356 8.84295C61.1028 3.18685 64.3727 1.99609 94.0993 1.99609V1.99609ZM163.66 2.29378L148.499 16.2852C140.176 24.0251 116.097 40.398 94.9911 52.901C73.8852 65.4039 44.7532 84.7537 29.8898 95.4706C8.18942 111.546 2.83862 114.225 2.24409 110.057C1.64956 107.08 3.73042 102.317 6.70308 99.0428C9.67575 96.0659 32.8625 77.9069 58.1301 58.5571C83.3978 39.2073 108.665 18.6667 114.313 12.7129C124.123 2.59147 125.61 1.99609 163.66 2.29378V2.29378ZM1.64956 1.99609H16.5129C24.5391 1.99609 31.3762 2.59147 31.3762 3.48454C31.3762 4.37761 28.4035 9.43833 24.8363 14.499C21.2691 19.8575 14.7293 28.7881 1.64956 43.6726V1.99609ZM439.82 2.59147C447.549 3.48454 448.738 4.97299 453.494 24.3228C456.467 35.635 460.926 49.6264 463.601 54.6871C466.574 61.2363 468.06 70.4647 466.871 98.7452L453.197 71.9531C445.468 57.0686 435.658 36.5281 431.497 25.8112C425.551 10.9268 424.659 5.86606 427.335 4.07992C429.416 2.88916 435.064 2.29378 439.82 2.59147V2.59147ZM278.702 4.6753L309.32 6.46143L310.212 22.8344C311.104 36.8258 310.212 40.6957 303.672 48.7333C297.727 56.1756 290.89 60.0455 275.729 64.5109C264.73 68.0831 234.409 74.6323 208.25 79.693C182.09 84.4561 152.661 90.4099 142.851 93.0891C133.041 95.4706 116.394 100.234 105.693 103.806C94.9911 107.08 77.7497 114.225 67.0481 119.583C56.3465 124.942 41.4832 134.17 33.457 140.124C25.7281 146.078 15.6211 155.306 1.94682 170.191L1.64956 161.26C1.35229 153.52 4.62222 149.948 24.5391 135.063C37.3215 125.24 57.8329 112.737 70.0208 107.08C82.2087 101.127 106.287 91.8983 123.529 86.2422C140.77 80.5861 167.524 72.8462 182.982 68.9762C198.44 65.1062 220.437 58.5571 232.031 54.0917C243.327 49.9241 257.298 42.4819 262.352 37.7188C268 32.6581 273.648 23.7274 275.432 16.5829L278.702 4.6753ZM391.96 7.94988C401.473 7.94988 401.77 8.54526 427.632 59.4501C442.198 87.7306 454.683 115.416 455.278 121.37C456.467 127.919 455.278 133.872 452.602 137.742C448.738 142.505 443.982 143.696 424.659 144.589C411.58 145.185 372.341 142.208 333.101 137.445C280.188 131.193 257.001 130.003 230.545 131.193C211.817 132.086 186.252 134.468 174.064 136.254C161.876 138.04 147.607 142.208 142.256 145.185C136.906 148.459 132.447 151.734 132.447 152.627C132.447 153.222 137.5 156.497 143.743 159.474C149.688 162.451 161.579 166.618 169.605 168.702C177.928 170.786 210.033 177.633 240.949 183.884C295.349 194.601 298.916 195.792 334.588 214.249C355.099 224.965 380.367 236.278 391.068 239.552C403.851 243.72 413.363 249.078 418.714 255.032C423.173 260.093 428.227 269.917 430.01 276.763C431.794 283.61 435.955 299.388 439.523 311.891C444.873 330.05 446.063 341.66 446.063 377.382C446.063 407.449 444.576 427.097 440.712 442.874C438.036 455.079 429.713 483.062 422.281 505.389C414.85 527.418 408.904 547.661 408.904 550.638C408.904 555.103 407.121 555.698 397.905 554.21C391.663 553.019 386.312 551.828 386.015 551.233C385.42 550.34 391.96 534.562 399.986 515.808C408.31 496.756 418.119 470.262 421.984 456.866C425.848 443.47 430.902 419.059 432.686 402.686C434.766 386.313 435.361 364.879 434.172 355.056C433.28 345.232 429.713 329.752 426.443 320.821C423.173 311.593 416.633 298.197 412.174 291.053C407.418 283.61 398.203 274.68 391.96 270.81C385.717 267.237 370.557 262.177 358.369 259.497C346.181 257.116 331.318 253.841 325.67 252.353C317.941 250.269 314.076 246.994 310.212 238.957C307.239 233.301 304.861 227.347 305.158 226.156C305.158 224.965 300.105 220.202 293.862 216.035C287.62 211.569 275.134 205.913 266.216 203.532C257.298 200.853 212.411 191.327 166.632 182.098C120.853 172.87 83.3978 165.13 83.1005 164.832C82.8032 164.535 81.9114 161.855 81.0196 158.581C79.5333 153.818 81.6142 150.841 88.7486 146.375C94.0993 142.803 106.882 137.147 117.583 133.575C128.285 130.003 150.877 124.942 168.119 122.56C185.36 119.881 218.654 117.5 242.435 117.202C266.216 116.904 309.617 118.69 339.047 120.774C380.069 124.049 395.527 124.346 405.337 121.667C412.471 119.583 419.011 115.713 420.795 112.439C422.876 108.271 422.876 102.317 420.498 93.6844C418.714 86.8376 409.499 65.4039 399.689 46.0541C390.176 26.7043 382.15 10.3314 382.15 9.73602C382.15 8.84295 386.609 7.94988 391.96 7.94988V7.94988ZM303.375 158.283C311.698 159.176 336.966 161.26 359.855 163.046C382.745 164.832 412.174 166.023 425.254 166.023C438.334 166.321 452.9 164.832 457.359 163.046C461.818 161.26 466.574 159.771 467.763 159.771C468.952 159.771 468.952 168.107 467.466 178.526C466.277 188.647 465.385 198.471 465.682 200.257C465.979 201.746 466.871 282.42 468.357 555.996H438.631L439.82 534.265C440.414 522.357 444.279 497.947 448.738 480.085C452.9 461.926 457.953 433.943 459.737 417.571C462.115 395.542 462.115 377.978 459.44 352.079C457.656 332.431 455.278 314.868 454.386 313.379C453.494 311.593 451.711 294.327 448.441 238.957L438.334 230.324C432.983 225.859 412.769 215.439 394.041 207.104C375.313 199.066 341.128 186.266 318.238 178.824C279.593 166.321 277.215 165.13 282.566 160.962C286.728 157.985 292.97 157.092 303.375 158.283V158.283ZM82.8032 199.066C93.8021 198.769 126.501 202.639 155.633 207.699C184.468 212.463 213.303 218.119 219.843 220.202C226.086 222.286 233.517 226.454 236.193 229.431C239.463 233.301 240.949 240.445 240.949 253.544C240.949 269.321 242.435 274.084 249.867 284.801C254.92 291.946 263.541 300.876 269.189 304.746C274.837 308.616 284.35 313.082 289.998 314.57C295.646 316.356 312.59 319.631 327.156 322.31C342.019 324.989 359.261 329.454 365.801 332.431C372.341 335.408 381.259 341.66 385.42 346.423C389.879 351.186 394.933 359.521 396.716 365.475C398.5 371.131 399.986 381.252 399.986 387.802C400.284 394.351 396.716 413.105 392.555 429.478C388.393 445.851 380.367 468.475 374.719 480.085C369.071 491.398 358.666 507.473 351.829 515.51C342.317 526.227 337.858 529.502 333.993 528.013C329.237 526.227 330.426 524.143 341.425 510.45C348.262 501.817 356.883 490.207 360.45 484.551C364.017 478.597 371.151 459.842 376.205 442.874C381.258 425.013 385.123 404.77 385.123 395.839C385.123 387.206 383.339 376.489 380.961 372.024C378.88 367.559 371.746 361.01 365.503 357.14C357.774 352.674 342.911 349.102 319.724 346.125C300.997 343.446 280.485 340.171 274.54 338.385C268.297 336.897 259.082 331.836 253.731 327.073C248.38 322.31 240.057 310.105 235.301 299.388C227.869 283.908 226.383 276.466 226.383 258.604C226.086 238.957 225.491 236.278 218.654 230.919C214.492 227.942 204.682 223.775 196.359 222.286C188.333 220.5 164.551 216.63 143.743 213.356C122.934 210.081 96.4775 207.699 84.8841 207.699C73.588 207.699 50.4012 210.081 33.7543 213.356C16.8101 216.63 2.83862 219.309 2.54136 219.309C1.94682 219.309 1.64956 216.332 1.64956 212.76C1.64956 206.509 3.43316 205.913 32.268 202.936C48.9149 201.15 71.8044 199.364 82.8032 199.066V199.066ZM98.2611 215.439C111.341 216.332 137.797 219.607 157.12 222.584C176.145 225.859 196.656 230.324 202.304 233.003C208.25 235.385 213.006 239.552 213.006 242.529C213.303 245.506 213.006 259.795 213.006 274.68C212.709 289.266 213.898 310.7 215.384 322.31C218.059 339.576 219.843 344.339 227.572 351.186C232.328 355.651 241.543 360.712 247.786 362.2C253.731 363.986 277.513 366.368 300.402 367.856C328.642 369.643 345.289 372.024 351.829 375.299C357.18 377.978 363.423 383.336 365.801 386.909C368.476 390.481 370.26 399.114 370.26 405.663C370.26 412.212 367.287 428.287 363.423 441.386C359.558 454.484 353.613 471.155 350.343 478.597C347.073 485.741 338.155 499.137 330.426 508.366C322.697 517.296 312.887 528.906 308.428 534.265C303.969 539.325 298.916 543.791 296.835 543.791C294.754 543.791 301.888 531.586 312.59 516.403C323.292 501.221 334.29 482.169 337.56 474.132C340.533 465.796 345.289 451.209 347.965 441.386C350.937 430.967 352.424 419.357 351.235 413.701C350.046 407.747 346.478 402.091 341.425 398.816C334.885 394.648 324.183 393.458 279.891 391.969C226.383 390.481 226.086 390.481 208.25 380.955C198.44 375.596 186.846 367.559 182.387 363.093C177.631 358.628 173.767 352.377 173.469 349.102C173.172 345.827 177.928 332.431 183.874 319.333C189.819 306.235 196.062 288.076 197.845 279.145C199.629 269.917 200.818 258.307 200.818 252.948C200.818 246.101 198.737 241.934 194.278 238.957C190.414 236.575 168.713 231.812 145.824 228.538C122.934 225.263 96.4775 222.584 87.2622 222.584C77.7497 222.584 61.1028 224.37 50.104 226.752C39.1051 229.133 23.9445 233.003 16.5129 235.682C9.08121 238.361 2.83862 240.445 2.54136 240.445C1.94682 240.445 1.64956 238.361 1.64956 235.98C1.64956 233.003 7.59488 229.431 17.4047 226.454C26.0254 223.775 42.375 219.905 53.6711 217.523C66.1563 215.142 83.9923 214.249 98.2611 215.439V215.439ZM87.2622 231.515C102.423 231.515 127.988 233.301 144.337 235.98C160.687 238.361 177.631 241.934 181.496 244.018C186.846 246.399 189.225 250.269 188.927 255.33C188.927 259.2 185.063 271.107 180.009 281.229C175.253 291.35 165.146 306.235 158.012 313.975C150.877 321.715 140.473 330.348 134.825 333.027C129.474 336.004 116.097 342.255 105.098 347.316C87.2622 355.353 84.8841 357.437 84.8841 364.582C84.8841 369.94 90.8294 380.657 102.72 396.732C112.53 409.831 122.042 423.822 124.123 427.99C126.204 431.86 131.258 439.6 135.419 444.958C141.959 453.591 143.446 454.186 147.31 450.614C149.688 448.233 154.147 439.004 156.823 430.371C159.795 421.738 164.849 411.319 168.119 407.747C171.686 403.579 177.631 401.198 182.982 401.198C188.035 401.198 200.223 403.877 210.628 407.449C225.788 412.51 236.787 413.701 272.756 413.998C311.698 414.296 316.752 415.189 322.4 420.547C327.453 425.013 328.94 429.776 328.642 440.493C328.642 448.233 325.075 465.796 320.616 479.192C315.86 494.077 306.347 513.129 296.835 527.716C288.214 540.814 281.08 552.424 281.08 553.615C281.08 554.805 278.999 555.996 276.621 555.996C274.243 555.996 272.162 554.508 272.162 553.019C272.162 551.233 276.026 544.982 281.08 538.73C285.836 532.479 292.673 520.869 296.24 512.831C300.105 503.9 303.375 489.016 304.267 477.108C305.158 464.308 304.267 453.591 302.483 449.423C300.402 445.851 295.349 441.088 290.89 439.302C286.431 437.516 270.675 435.73 255.812 435.134C241.246 434.837 222.518 433.646 214.195 432.455C201.71 430.669 198.44 430.967 194.278 435.73C191.305 438.706 187.144 450.912 184.468 462.819C182.09 474.727 175.253 494.077 169.308 505.984C163.362 517.892 157.714 533.967 156.823 541.707C155.039 554.508 153.85 555.996 147.31 555.996C140.473 555.996 139.878 554.805 137.797 535.158C136.608 523.548 133.338 509.557 130.96 503.9C126.799 493.779 126.204 493.481 116.989 496.458C111.638 498.244 101.828 503.9 95.5857 508.961C89.0458 514.32 79.5333 525.632 73.8852 534.265C68.5345 542.898 64.0755 551.233 64.0755 553.019C64.0755 554.508 60.8055 555.996 56.6438 555.996C51.5903 555.996 49.2121 554.21 49.2121 550.638C49.2121 547.661 55.752 534.86 63.4809 521.762C71.5071 508.663 82.8032 489.909 89.0458 480.085C98.2611 464.605 99.7474 459.545 99.7474 444.363C99.7474 429.478 98.2611 423.822 90.8294 412.212C86.0732 404.472 80.7224 397.328 78.9388 396.732C77.4524 395.839 72.1016 389.29 67.0481 382.443C61.9946 375.596 58.1301 366.368 57.8329 362.498C57.8329 358.033 61.6973 351.186 66.1563 346.423C70.9126 341.957 81.9114 335.408 90.8294 332.134C99.7474 328.859 113.124 322.905 120.556 319.035C127.988 315.463 138.689 307.128 144.635 300.876C150.58 294.625 158.903 284.206 163.362 277.656C167.524 271.107 171.091 263.367 171.091 260.391C171.091 257.414 169.605 253.544 167.524 251.46C165.443 249.078 150.283 245.804 133.933 243.422C116.989 241.041 91.7212 240.148 74.4798 241.041C52.4821 241.934 39.1051 244.613 23.35 250.269C8.18942 255.925 1.64956 257.116 1.64956 254.437C1.64956 252.353 5.21675 248.781 9.67575 246.697C14.432 244.613 27.5117 240.148 38.8078 237.171C51.5903 233.896 70.3181 231.515 87.2622 231.515V231.515ZM89.3431 248.185C94.3966 248.483 104.801 249.674 112.53 250.567C120.259 251.46 130.663 254.139 135.419 256.818C141.365 259.795 144.337 263.367 144.337 267.833C144.337 271.405 141.662 278.55 138.689 283.61C135.717 288.373 128.582 295.816 123.231 300.281C117.583 304.449 100.342 313.975 84.8841 321.417C67.3454 329.454 53.9684 337.79 49.8067 343.148C45.645 348.804 43.2668 355.949 43.2668 363.093C43.2668 372.024 46.2395 377.978 58.1301 392.862C66.4536 402.984 75.3716 416.082 77.7497 422.036C80.7224 428.287 82.2087 437.218 81.3169 445.851C80.7224 452.996 76.5606 466.392 72.1016 475.62C67.9399 484.551 57.5356 503.9 49.2121 518.785C41.186 533.372 34.3488 547.661 34.3488 550.638C34.3488 554.21 31.9707 555.996 26.9172 555.996C21.5664 555.996 19.4855 554.21 19.4855 550.042C19.4855 546.768 28.998 525.632 40.8887 503.007C57.5356 470.559 62.2919 458.652 63.4809 445.851C64.67 429.776 64.0755 428.585 48.0231 404.175C38.8078 390.183 30.4844 374.703 29.5926 369.94C28.7008 364.879 28.7008 357.437 29.8898 353.567C31.0789 349.4 36.1324 341.66 41.4832 336.004C46.5368 330.645 61.9946 319.928 75.3716 312.188C89.0458 304.746 103.315 294.922 107.179 291.053C111.044 286.885 114.611 280.931 115.205 277.954C115.8 274.68 113.124 269.917 108.665 266.642C103.909 262.772 94.3966 260.093 81.9114 259.2C67.6427 257.711 56.6438 258.902 38.8078 263.665C25.7281 266.94 12.0539 270.512 8.48668 271.405C4.02769 272.596 1.64956 271.703 1.64956 269.321C1.64956 267.237 11.4593 262.474 23.35 258.604C34.9434 254.734 52.7793 250.567 62.5891 249.376C72.3989 248.185 84.5868 247.59 89.3431 248.185V248.185ZM53.6711 273.191C64.9673 273.191 73.8852 274.68 77.4524 277.061C83.1005 280.931 83.1005 282.122 78.9388 289.266C76.5606 293.434 66.4536 302.662 56.6438 309.807C46.834 316.654 34.9434 327.668 29.8898 333.92C23.0527 342.85 20.6746 349.4 20.0801 362.2C18.891 377.085 20.0801 381.252 32.5652 404.77C43.2668 425.013 46.2395 433.943 46.2395 444.958C46.2395 456.568 42.375 467.285 1.64956 551.531V532.776C1.64956 516.999 3.43316 510.45 13.5402 490.504C20.0801 477.406 26.3227 460.735 27.2145 453.889C28.1062 446.149 27.2145 436.027 24.2418 427.99C21.8637 420.547 17.1074 406.556 13.8375 396.732C10.2703 386.909 7.59488 373.512 7.59488 366.963C7.59488 360.414 10.5675 348.804 13.8375 341.66C17.1074 334.217 23.0527 324.096 26.9172 319.333C30.7816 314.272 34.6461 306.532 35.5379 302.067C37.3215 294.625 36.4297 293.732 29.2953 293.434C24.8363 293.434 16.8101 293.434 11.4593 293.434C4.02769 293.732 1.64956 292.541 1.05503 288.373C0.460494 284.206 4.32495 282.122 17.9992 278.252C27.809 275.87 43.8614 273.489 53.6711 273.191ZM244.516 455.079C265.325 455.972 269.784 457.163 276.621 463.712C280.783 467.582 285.836 476.513 287.62 483.062C290.295 491.993 290.295 498.542 287.322 509.854C285.242 517.892 279.296 530.097 273.648 537.242C268 544.089 263.244 551.233 263.244 553.019C263.244 554.508 259.974 555.996 255.812 555.996C251.65 555.996 248.381 554.508 248.381 553.019C248.381 551.233 251.353 547.065 255.218 543.791C258.785 540.219 264.136 533.967 267.108 529.502C270.081 525.036 272.162 515.808 272.162 508.366C272.162 500.924 270.378 491.695 267.703 488.123C265.325 484.551 259.974 480.085 255.812 478.597C251.65 476.811 245.111 476.215 240.949 477.108C236.787 477.704 231.734 481.871 229.653 486.634C227.275 491.1 224.599 503.007 223.41 512.831C222.221 522.655 218.951 536.349 209.736 555.996H190.414C179.712 555.996 171.091 554.805 171.091 553.615C171.091 552.424 173.469 547.958 176.442 543.493C179.117 539.325 185.657 530.692 190.711 524.143C197.548 515.213 200.521 507.473 203.196 489.016C205.871 470.559 208.547 463.712 213.6 459.545C218.951 454.782 224.005 454.186 244.516 455.079V455.079ZM102.126 541.112C104.206 541.112 108.368 542.302 111.638 544.089C114.908 545.577 117.583 548.852 117.583 551.531C117.583 554.805 114.016 555.996 102.72 555.996C92.0185 555.996 87.8568 554.805 87.2622 551.531C87.2622 549.149 89.3431 545.875 92.613 544.089C95.8829 542.6 100.045 541.112 102.126 541.112V541.112ZM335.479 8.24757H347.073C358.072 8.24757 358.666 8.54526 368.476 28.1928C374.124 39.2073 380.664 55.2825 383.339 63.9155C386.907 75.2277 387.204 81.4792 385.123 87.1353C383.637 91.0052 379.178 96.0659 375.61 98.1498C370.854 100.531 341.722 102.317 284.052 103.806C230.842 104.997 188.333 107.676 169.605 110.653C153.255 113.332 129.771 118.095 117.583 121.667C105.395 125.24 89.3431 130.896 81.9114 134.17C74.4798 137.742 64.9673 143.399 60.8055 146.673C56.6438 149.948 51.5903 155.604 49.8067 159.176C46.834 164.535 47.1313 166.916 51.5903 171.679C55.4547 176.442 61.6973 178.228 78.9388 179.419C91.1267 180.312 108.665 182.098 117.583 183.587C126.501 185.075 159.201 191.029 189.819 196.983C220.437 202.639 250.461 209.783 256.704 212.165C262.649 214.844 270.081 219.012 273.054 221.989C276.621 225.263 278.404 231.217 278.107 239.552C278.107 246.399 279.593 255.032 281.08 258.307C282.863 261.581 288.214 266.047 292.97 268.726C298.024 271.107 315.563 274.977 332.507 277.656C350.343 280.336 369.368 285.099 378.583 289.564C387.204 293.434 397.311 301.174 401.473 306.532C405.337 311.891 411.282 322.31 414.552 329.752C418.119 336.897 421.687 351.781 422.579 362.498C423.966 375.398 422.975 392.267 419.606 413.105C416.633 431.264 410.093 455.377 403.851 471.155C397.905 485.741 387.798 507.473 380.961 519.38C374.421 531.288 367.584 541.112 365.801 541.112C364.314 541.112 361.044 539.623 359.261 537.242C355.991 534.265 357.477 530.395 366.098 517.296C372.043 508.068 381.556 491.398 386.907 480.085C392.555 468.475 399.689 448.53 402.959 435.432C406.229 422.334 409.796 402.686 410.688 392.267C411.877 380.955 411.282 366.666 409.499 358.033C407.121 348.507 402.067 338.385 394.933 330.05C388.69 322.608 378.286 314.272 371.746 310.998C365.206 307.723 345.289 302.365 327.156 299.388C306.05 295.518 289.403 290.755 279.891 285.396C271.865 281.229 263.244 274.084 260.568 270.214C257.893 265.451 256.109 255.627 255.812 244.911C255.812 227.347 255.812 227.049 243.922 220.5C236.49 216.332 211.222 209.783 175.55 202.936C132.149 194.601 108.963 191.624 74.4798 190.433C38.8078 189.243 28.998 188.052 24.5391 184.182C20.6746 180.61 19.7828 177.037 20.9719 171.977C22.1609 167.809 26.6199 160.665 30.7816 155.902C35.2406 151.138 45.645 143.101 53.6711 137.742C61.9946 132.682 75.9661 125.24 84.8841 121.667C93.8021 118.095 114.016 111.843 129.474 107.974C144.932 104.104 171.686 98.7452 188.927 96.3636C206.169 93.6844 241.543 89.5168 267.703 87.1353C293.862 84.4561 319.427 80.8838 324.183 79.3953C329.237 77.9069 336.074 74.0369 339.938 70.7623C344.397 66.5947 346.478 61.2363 346.478 54.3894C346.478 48.4356 344.1 35.9327 341.128 26.1089L335.479 8.24757Z" stroke="#EB3F3F"/>
</svg>
