<svg width="157" height="186" viewBox="0 0 157 186" fill="none" xmlns="http://www.w3.org/2000/svg">
<path fill-rule="evenodd" clip-rule="evenodd" d="M74.0742 0C77.0683 0 79.9626 0.199893 80.4616 0.599678C81.0605 0.999463 80.761 2.49866 79.763 4.0978C78.8648 5.69694 76.5693 8.09565 74.7728 9.39495C73.0761 10.7942 69.0839 12.993 66.0898 14.2923C63.0957 15.5916 55.2112 18.69 48.6241 20.9887C42.037 23.3874 32.6554 27.1854 27.6652 29.4841C22.675 31.683 15.0899 36.0806 10.6985 39.079C6.40693 42.0774 2.21515 44.7759 1.51652 45.2757C0.618283 45.6754 0.219066 45.3756 0.219066 44.1762C0.119262 43.0768 3.91182 39.8786 10.3991 35.281C16.4871 31.0833 28.264 24.4868 39.1427 19.1897C53.3149 12.2934 58.9039 9.09511 63.0957 5.19721C68.2855 0.399785 68.8843 0.0999463 74.0742 0V0ZM31.2582 0L28.4636 3.09833C26.9666 4.79742 20.0801 11.194 13.1936 17.2907C1.41672 27.6851 0.718087 28.1848 0.418675 25.6862C0.219066 23.4874 1.91574 21.1886 8.90203 13.7926C13.5928 8.69532 18.1838 3.49812 18.9823 2.29876C20.1799 0.399785 21.2777 0 31.2582 0V0ZM54.6123 0.0999463L49.5223 4.79742C46.7278 7.39602 38.6437 12.8931 31.5576 17.0908C24.4715 21.2886 14.6907 27.7851 9.70046 31.3831C2.41476 36.7802 0.618283 37.6797 0.418675 36.2805C0.219066 35.281 0.917696 33.6819 1.91574 32.5825C2.91378 31.583 10.6985 25.4863 19.1819 18.9898C27.6652 12.4933 36.1486 5.59699 38.0448 3.59807C41.3384 0.199892 41.8374 0 54.6123 0.0999463V0.0999463ZM0.219066 0H5.20928C7.90399 0 10.1995 0.199893 10.1995 0.499731C10.1995 0.79957 9.20144 2.49866 8.00379 4.19774C6.80614 5.99678 4.61045 8.99516 0.219066 13.9925V0ZM147.33 0.199893C149.925 0.499731 150.325 0.999463 151.921 7.49597C152.919 11.2939 154.417 15.9914 155.315 17.6905C156.313 19.8893 156.812 22.9876 156.413 32.4825L151.822 23.4874C149.227 18.4901 145.933 11.5938 144.536 7.9957C142.54 2.99839 142.24 1.2993 143.139 0.699624C143.837 0.299839 145.734 0.0999463 147.33 0.199893V0.199893ZM93.2366 0.899516L103.516 1.49919L103.816 6.99624C104.115 11.6937 103.816 12.993 101.62 15.6916C99.624 18.1902 97.3285 19.4895 92.2385 20.9887C88.5458 22.1881 78.3657 24.3869 69.583 26.086C60.8002 27.6851 50.9196 29.684 47.6261 30.5836C44.3325 31.3831 38.7435 32.9823 35.1505 34.1816C31.5576 35.281 25.7689 37.6797 22.176 39.4788C18.583 41.2778 13.5928 44.3761 10.8981 46.3751C8.3032 48.374 4.90986 51.4723 0.318871 56.4696L0.219066 53.4712C0.119262 50.8726 1.21711 49.6733 7.90399 44.676C12.1956 41.3778 19.0821 37.18 23.174 35.281C27.266 33.2821 35.3501 30.1838 41.1388 28.2848C46.9274 26.3858 55.9098 23.7872 61.0996 22.4879C66.2894 21.1886 73.6749 18.9898 77.5673 17.4906C81.3599 16.0913 86.0507 13.5927 87.7473 11.9936C89.6436 10.2945 91.5399 7.29608 92.1387 4.89737L93.2366 0.899516ZM131.262 1.99893C134.456 1.99893 134.555 2.19882 143.238 19.2896C148.129 28.7845 152.321 38.0795 152.52 40.0784C152.919 42.2773 152.52 44.2762 151.622 45.5755C150.325 47.1746 148.728 47.5744 142.24 47.8743C137.849 48.0742 124.675 47.0747 111.501 45.4755C93.7356 43.3767 85.9509 42.9769 77.0683 43.3767C70.7806 43.6765 62.1975 44.4761 58.1055 45.0758C54.0135 45.6754 49.2229 47.0747 47.4264 48.0741C45.63 49.1736 44.1329 50.273 44.1329 50.5728C44.1329 50.7727 45.8296 51.8721 47.9255 52.8716C49.9215 53.871 53.9137 55.2703 56.6084 55.9699C59.4029 56.6695 70.1818 58.9683 80.5614 61.0672C98.8256 64.6652 100.023 65.065 112 71.2617C118.886 74.8598 127.37 78.6577 130.963 79.7571C135.254 81.1564 138.448 82.9554 140.244 84.9543C141.741 86.6534 143.438 89.9516 144.037 92.2504C144.636 94.5492 146.033 99.8463 147.231 104.044C149.027 110.141 149.426 114.039 149.426 126.032C149.426 136.127 148.927 142.723 147.63 148.02C146.732 152.118 143.937 161.513 141.442 169.009C138.947 176.405 136.951 183.201 136.951 184.201C136.951 185.7 136.352 185.9 133.258 185.4C131.162 185.001 129.366 184.601 129.266 184.401C129.066 184.101 131.262 178.804 133.957 172.507C136.751 166.111 140.045 157.215 141.342 152.718C142.64 148.22 144.336 140.025 144.935 134.528C145.634 129.031 145.833 121.834 145.434 118.536C145.135 115.238 143.937 110.041 142.839 107.042C141.741 103.944 139.546 99.4465 138.049 97.0478C136.452 94.5492 133.358 91.5508 131.262 90.2515C129.166 89.0521 124.076 87.353 119.984 86.4535C115.892 85.6539 110.902 84.5545 109.006 84.0548C106.411 83.3552 105.113 82.2558 103.816 79.5572C102.818 77.6582 102.019 75.6593 102.119 75.2595C102.119 74.8598 100.422 73.2606 98.3266 71.8614C96.2307 70.3622 92.0389 68.4632 89.0448 67.6636C86.0507 66.7641 70.9802 63.5658 55.6104 60.4675C40.2405 57.3692 27.6652 54.7706 27.5654 54.6706C27.4656 54.5707 27.1662 53.6711 26.8668 52.5717C26.3678 50.9726 27.0664 49.9731 29.4617 48.4739C31.2582 47.2746 35.5497 45.3756 39.1427 44.1762C42.7356 42.9769 50.3208 41.2778 56.1094 40.4782C61.898 39.5787 73.0761 38.7791 81.0604 38.6792C89.0448 38.5793 103.616 39.1789 113.497 39.8786C127.27 40.978 132.46 41.0779 135.753 40.1784C138.148 39.4788 140.344 38.1795 140.943 37.0801C141.642 35.6808 141.642 33.6819 140.843 30.7834C140.244 28.4847 137.15 21.2886 133.857 14.792C130.663 8.29554 127.968 2.7985 127.968 2.5986C127.968 2.29876 129.465 1.99893 131.262 1.99893V1.99893ZM101.52 52.4718C104.315 52.7716 112.798 53.4712 120.483 54.0709C128.168 54.6706 138.049 55.0704 142.44 55.0704C146.831 55.1703 151.722 54.6706 153.219 54.0709C154.716 53.4712 156.313 52.9715 156.712 52.9715C157.111 52.9715 157.111 55.77 156.612 59.2681C156.213 62.6663 155.914 65.9645 156.013 66.5642C156.113 67.0639 156.413 94.1494 156.912 186H146.931L147.33 178.704C147.53 174.706 148.827 166.51 150.325 160.514C151.722 154.417 153.418 145.022 154.017 139.525C154.816 132.129 154.816 126.232 153.917 117.537C153.319 110.94 152.52 105.044 152.221 104.544C151.921 103.944 151.323 98.1472 150.225 79.5572L146.831 76.6588C145.035 75.1596 138.248 71.6615 131.961 68.863C125.673 66.1644 114.195 61.8667 106.511 59.3681C93.536 55.1703 92.7375 54.7706 94.534 53.3713C95.9313 52.3718 98.0272 52.072 101.52 52.4718V52.4718ZM27.4656 66.1644C31.1584 66.0645 42.1368 67.3638 51.9176 69.0629C61.5986 70.662 71.2796 72.561 73.4753 73.2606C75.5712 73.9602 78.0663 75.3595 78.9646 76.3589C80.0624 77.6582 80.5614 80.057 80.5614 84.4546C80.5614 89.7517 81.0604 91.3509 83.5556 94.9489C85.2522 97.3477 88.1465 100.346 90.0428 101.645C91.9391 102.945 95.1328 104.444 97.0291 104.944C98.9254 105.543 104.614 106.643 109.505 107.542C114.495 108.442 120.283 109.941 122.479 110.94C124.675 111.94 127.669 114.039 129.066 115.638C130.563 117.237 132.26 120.035 132.859 122.034C133.458 123.933 133.957 127.332 133.957 129.53C134.056 131.729 132.859 138.026 131.462 143.523C130.064 149.02 127.37 156.616 125.473 160.514C123.577 164.312 120.084 169.709 117.788 172.407C114.595 176.005 113.098 177.105 111.8 176.605C110.203 176.005 110.602 175.306 114.295 170.708C116.591 167.81 119.485 163.912 120.683 162.013C121.88 160.014 124.276 153.717 125.972 148.02C127.669 142.024 128.966 135.227 128.966 132.229C128.966 129.33 128.368 125.732 127.569 124.233C126.871 122.734 124.475 120.535 122.379 119.236C119.784 117.737 114.794 116.537 107.01 115.538C100.722 114.638 93.8354 113.539 91.8393 112.939C89.7434 112.44 86.6495 110.74 84.853 109.141C83.0565 107.542 80.262 103.444 78.6651 99.8463C76.17 94.6491 75.671 92.1504 75.671 86.1537C75.5712 79.5572 75.3716 78.6577 73.0761 76.8587C71.6789 75.8592 68.3853 74.46 65.5908 73.9602C62.8961 73.3606 54.9118 72.0613 47.9255 70.9618C40.9392 69.8624 32.0566 69.0629 28.1642 69.0629C24.3717 69.0629 16.587 69.8624 10.9979 70.9618C5.30908 72.0613 0.618283 72.9608 0.518479 72.9608C0.318871 72.9608 0.219066 71.9613 0.219066 70.762C0.219066 68.6631 0.817891 68.4632 10.4989 67.4637C16.0879 66.864 23.7729 66.2644 27.4656 66.1644V66.1644ZM32.6554 71.6615C37.0468 71.9613 45.9294 73.0607 52.4167 74.0602C58.8041 75.1596 65.6906 76.6588 67.5869 77.5583C69.583 78.3579 71.1798 79.7571 71.1798 80.7566C71.2796 81.756 71.1798 86.5535 71.1798 91.5508C71.08 96.4481 71.4793 103.644 71.9783 107.542C72.8765 113.339 73.4753 114.938 76.0702 117.237C77.6671 118.736 80.761 120.435 82.8569 120.935C84.853 121.535 92.8373 122.334 100.522 122.834C110.004 123.434 115.593 124.233 117.788 125.333C119.585 126.232 121.681 128.031 122.479 129.231C123.377 130.43 123.976 133.328 123.976 135.527C123.976 137.726 122.978 143.123 121.681 147.521C120.383 151.918 118.387 157.515 117.289 160.014C116.192 162.413 113.197 166.91 110.602 170.009C108.008 173.007 104.714 176.905 103.217 178.704C101.72 180.403 100.023 181.902 99.3246 181.902C98.626 181.902 101.021 177.804 104.614 172.707C108.207 167.61 111.9 161.213 112.998 158.515C113.996 155.716 115.593 150.819 116.491 147.521C117.489 144.023 117.988 140.125 117.589 138.226C117.19 136.227 115.992 134.328 114.295 133.228C112.1 131.829 108.507 131.429 93.6358 130.93C75.671 130.43 75.5712 130.43 69.583 127.232C66.2894 125.433 62.3971 122.734 60.9 121.235C59.3031 119.736 58.0057 117.637 57.9059 116.537C57.8061 115.438 59.4029 110.94 61.399 106.543C63.3951 102.145 65.491 96.0484 66.0898 93.05C66.6886 89.9516 67.0879 86.0537 67.0879 84.2547C67.0879 81.9559 66.3892 80.5567 64.8922 79.5572C63.5947 78.7577 56.309 77.1585 48.6241 76.0591C40.9392 74.9597 32.0566 74.0602 28.9627 74.0602C25.7689 74.0602 20.1799 74.6599 16.4871 75.4594C12.7944 76.259 7.70438 77.5583 5.20928 78.4578C2.71417 79.3573 0.618283 80.057 0.518479 80.057C0.318871 80.057 0.219066 79.3573 0.219066 78.5578C0.219066 77.5583 2.21515 76.3589 5.50869 75.3595C8.40301 74.46 13.8922 73.1607 17.6848 72.3611C21.8766 71.5615 27.8648 71.2617 32.6554 71.6615V71.6615ZM28.9627 77.0586C34.0527 77.0586 42.6358 77.6582 48.1251 78.5578C53.6143 79.3573 59.3031 80.5567 60.6006 81.2563C62.3971 82.0559 63.1955 83.3552 63.0957 85.0543C63.0957 86.3536 61.7982 90.3514 60.1016 93.7496C58.5047 97.1478 55.1114 102.145 52.7161 104.744C50.3208 107.342 46.8276 110.241 44.9313 111.14C43.1349 112.14 38.6437 114.239 34.9509 115.938C28.9627 118.636 28.1642 119.336 28.1642 121.735C28.1642 123.534 30.1603 127.132 34.1525 132.529C37.446 136.926 40.6398 141.624 41.3384 143.023C42.037 144.322 43.7337 146.921 45.1309 148.72C47.3266 151.618 47.8257 151.818 49.1231 150.619C49.9215 149.819 51.4186 146.721 52.3168 143.823C53.3149 140.924 55.0116 137.426 56.1094 136.227C57.3071 134.828 59.3031 134.028 61.0996 134.028C62.7963 134.028 66.8883 134.927 70.3814 136.127C75.4714 137.826 79.1642 138.226 91.2405 138.326C104.315 138.426 106.011 138.725 107.908 140.524C109.604 142.024 110.103 143.623 110.004 147.221C110.004 149.819 108.806 155.716 107.309 160.214C105.712 165.211 102.518 171.608 99.3246 176.505C96.4303 180.903 94.035 184.801 94.035 185.2C94.035 185.6 93.3364 186 92.5379 186C91.7395 186 91.0409 185.5 91.0409 185.001C91.0409 184.401 92.3383 182.302 94.035 180.203C95.6319 178.104 97.9274 174.206 99.125 171.508C100.422 168.509 101.52 163.512 101.82 159.514C102.119 155.217 101.82 151.618 101.221 150.219C100.522 149.02 98.8256 147.421 97.3285 146.821C95.8315 146.221 90.5418 145.622 85.5516 145.422C80.6612 145.322 74.3736 144.922 71.5791 144.522C67.3873 143.923 66.2894 144.023 64.8922 145.622C63.8941 146.621 62.4969 150.719 61.5986 154.717C60.8002 158.715 58.5047 165.211 56.5086 169.209C54.5125 173.207 52.6163 178.604 52.3168 181.203C51.718 185.5 51.3188 186 49.1231 186C46.8276 186 46.628 185.6 45.9294 179.004C45.5302 175.106 44.4323 170.408 43.6339 168.509C42.2366 165.111 42.037 165.011 38.9431 166.011C37.1466 166.61 33.8531 168.509 31.7572 170.208C29.5615 172.008 26.3678 175.805 24.4715 178.704C22.675 181.602 21.1779 184.401 21.1779 185.001C21.1779 185.5 20.0801 186 18.6828 186C16.9862 186 16.1877 185.4 16.1877 184.201C16.1877 183.201 18.3834 178.904 20.9783 174.506C23.673 170.109 27.4656 163.812 29.5615 160.514C32.6554 155.316 33.1544 153.617 33.1544 148.52C33.1544 143.523 32.6554 141.624 30.1603 137.726C28.5635 135.127 26.767 132.729 26.1682 132.529C25.6691 132.229 23.8727 130.03 22.176 127.731C20.4793 125.433 19.1819 122.334 19.0821 121.035C19.0821 119.536 20.3795 117.237 21.8766 115.638C23.4734 114.139 27.1662 111.94 30.1603 110.84C33.1544 109.741 37.6456 107.742 40.1407 106.443C42.6358 105.243 46.2288 102.445 48.2249 100.346C50.221 98.2472 53.0155 94.7491 54.5125 92.5502C55.9098 90.3514 57.1074 87.7528 57.1074 86.7534C57.1074 85.7539 56.6084 84.4546 55.9098 83.755C55.2112 82.9554 50.1212 81.856 44.6319 81.0564C38.9431 80.2568 30.4597 79.957 24.6711 80.2569C17.2856 80.5567 12.7944 81.4562 7.50477 83.3552C2.41476 85.2542 0.219066 85.6539 0.219066 84.7544C0.219066 84.0548 1.41672 82.8554 2.91378 82.1558C4.51065 81.4562 8.90203 79.957 12.6946 78.9575C16.9862 77.8581 23.2738 77.0586 28.9627 77.0586V77.0586ZM29.6613 82.6556C31.358 82.7555 34.8511 83.1553 37.446 83.4551C40.0409 83.755 43.5341 84.6545 45.1309 85.554C47.127 86.5535 48.1251 87.7528 48.1251 89.252C48.1251 90.4514 47.2268 92.8501 46.2288 94.5492C45.2307 96.1483 42.8354 98.647 41.039 100.146C39.1427 101.545 33.3541 104.744 28.1642 107.242C22.2758 109.941 17.7846 112.739 16.3873 114.538C14.9901 116.437 14.1917 118.836 14.1917 121.235C14.1917 124.233 15.1897 126.232 19.1819 131.229C21.9764 134.628 24.9705 139.025 25.7689 141.024C26.767 143.123 27.266 146.121 26.9666 149.02C26.767 151.419 25.3697 155.916 23.8727 159.015C22.4754 162.013 18.9823 168.509 16.1877 173.507C13.493 178.404 11.1975 183.201 11.1975 184.201C11.1975 185.4 10.3991 186 8.70242 186C6.90595 186 6.20732 185.4 6.20732 184.001C6.20732 182.902 9.40105 175.805 13.3932 168.21C18.9823 157.315 20.5791 153.318 20.9783 149.02C21.3776 143.623 21.1779 143.223 15.7885 135.027C12.6946 130.33 9.90007 125.133 9.60066 123.534C9.30125 121.834 9.30125 119.336 9.70046 118.037C10.0997 116.637 11.7964 114.039 13.5928 112.14C15.2895 110.341 20.4793 106.743 24.9705 104.144C29.5615 101.645 34.3521 98.3471 35.6495 97.0478C36.947 95.6486 38.1447 93.6496 38.3443 92.6502C38.5439 91.5508 37.6456 89.9516 36.1486 88.8522C34.5517 87.5529 31.358 86.6534 27.1662 86.3536C22.3756 85.8538 18.6828 86.2536 12.6946 87.8528C8.3032 88.9522 3.71221 90.1515 2.51456 90.4514C1.0175 90.8512 0.219066 90.5513 0.219066 89.7517C0.219066 89.0521 3.5126 87.453 7.50477 86.1537C11.3971 84.8544 17.3854 83.4551 20.6789 83.0553C23.9725 82.6556 28.0644 82.4557 29.6613 82.6556V82.6556ZM17.6848 91.051C21.4774 91.051 24.4715 91.5508 25.6691 92.3503C27.5654 93.6496 27.5654 94.0494 26.1682 96.4481C25.3697 97.8474 21.9764 100.946 18.6828 103.344C15.3893 105.643 11.3971 109.341 9.70046 111.44C7.40497 114.438 6.60653 116.637 6.40693 120.935C6.00771 125.932 6.40693 127.332 10.5987 135.227C14.1917 142.024 15.1897 145.022 15.1897 148.72C15.1897 152.618 13.8922 156.216 0.219066 184.501V178.204C0.219066 172.907 0.817891 170.708 4.21123 164.012C6.40693 159.614 8.50281 154.017 8.80223 151.718C9.10164 149.12 8.80223 145.722 7.80418 143.023C7.00575 140.524 5.40888 135.827 4.31104 132.529C3.11339 129.231 2.21515 124.733 2.21515 122.534C2.21515 120.335 3.21319 116.437 4.31104 114.039C5.40888 111.54 7.40497 108.142 8.70242 106.543C9.99988 104.844 11.2973 102.245 11.5967 100.746C12.1956 98.2472 11.8962 97.9473 9.50085 97.8474C8.00379 97.8474 5.30908 97.8474 3.5126 97.8474C1.0175 97.9473 0.219066 97.5475 0.0194581 96.1483C-0.18015 94.7491 1.1173 94.0494 5.7083 92.7501C9.00183 91.9506 14.3913 91.151 17.6848 91.051ZM81.7591 152.118C88.7454 152.418 90.2424 152.818 92.5379 155.017C93.9352 156.316 95.6319 159.314 96.2307 161.513C97.1289 164.512 97.1289 166.71 96.1309 170.508C95.4322 173.207 93.4362 177.305 91.5399 179.703C89.6436 182.002 88.0467 184.401 88.0467 185.001C88.0467 185.5 86.9489 186 85.5516 186C84.1544 186 83.0565 185.5 83.0565 185.001C83.0565 184.401 84.0546 183.002 85.352 181.902C86.5497 180.703 88.3461 178.604 89.3442 177.105C90.3422 175.606 91.0409 172.507 91.0409 170.009C91.0409 167.51 90.442 164.412 89.5438 163.212C88.7454 162.013 86.9489 160.514 85.5516 160.014C84.1544 159.414 81.9587 159.214 80.5614 159.514C79.1642 159.714 77.4675 161.113 76.7689 162.713C75.9704 164.212 75.0722 168.21 74.673 171.508C74.2738 174.806 73.1759 179.404 70.082 186H63.5947C60.0018 186 57.1074 185.6 57.1074 185.2C57.1074 184.801 57.9059 183.301 58.9039 181.802C59.8022 180.403 61.9979 177.505 63.6945 175.306C65.99 172.307 66.9881 169.709 67.8863 163.512C68.7845 157.315 69.6828 155.017 71.3794 153.617C73.1759 152.018 74.8726 151.818 81.7591 152.118V152.118ZM33.9529 181.003C34.6515 181.003 36.0488 181.402 37.1466 182.002C38.2445 182.502 39.1427 183.601 39.1427 184.501C39.1427 185.6 37.945 186 34.1525 186C30.5595 186 29.1623 185.6 28.9627 184.501C28.9627 183.701 29.6613 182.602 30.7591 182.002C31.857 181.502 33.2542 181.003 33.9529 181.003V181.003ZM112.299 2.09887H116.192C119.884 2.09887 120.084 2.19882 123.377 8.79527C125.274 12.4933 127.469 17.8904 128.368 20.7888C129.565 24.5868 129.665 26.6857 128.966 28.5846C128.467 29.8839 126.97 31.583 125.773 32.2826C124.176 33.0822 114.395 33.6819 95.033 34.1816C77.1681 34.5814 62.8961 35.4809 56.6084 36.4804C51.1192 37.3799 43.2347 38.979 39.1427 40.1784C35.0507 41.3778 29.6613 43.2767 27.1662 44.3761C24.6711 45.5755 21.4774 47.4745 20.0801 48.5739C18.6828 49.6733 16.9862 51.5723 16.3873 52.7716C15.3893 54.5707 15.4891 55.3702 16.9862 56.9694C18.2836 58.5685 20.3795 59.1682 26.1682 59.568C30.2601 59.8678 36.1486 60.4675 39.1427 60.9672C42.1368 61.467 53.1153 63.4659 63.3951 65.4648C73.6749 67.3638 83.7552 69.7625 85.851 70.5621C87.8471 71.4616 90.3422 72.8608 91.3403 73.8603C92.5379 74.9597 93.1368 76.9586 93.037 79.7571C93.037 82.0559 93.536 84.9543 94.035 86.0537C94.6338 87.1531 96.4303 88.6523 98.0272 89.5518C99.7238 90.3514 105.612 91.6507 111.301 92.5502C117.289 93.4498 123.677 95.0489 126.771 96.5481C129.665 97.8474 133.058 100.446 134.456 102.245C135.753 104.044 137.749 107.542 138.847 110.041C140.045 112.44 141.242 117.437 141.542 121.035C142.008 125.366 141.675 131.03 140.544 138.026C139.546 144.123 137.35 152.218 135.254 157.515C133.258 162.413 129.865 169.709 127.569 173.707C125.374 177.704 123.078 181.003 122.479 181.003C121.98 181.003 120.882 180.503 120.283 179.703C119.186 178.704 119.685 177.405 122.579 173.007C124.575 169.909 127.769 164.312 129.565 160.514C131.462 156.616 133.857 149.919 134.955 145.522C136.053 141.124 137.25 134.528 137.55 131.03C137.949 127.232 137.749 122.434 137.15 119.536C136.352 116.337 134.655 112.939 132.26 110.141C130.164 107.642 126.671 104.844 124.475 103.744C122.28 102.645 115.593 100.846 109.505 99.8463C102.419 98.547 96.8295 96.9479 93.6358 95.1488C90.9411 93.7496 88.0467 91.3509 87.1485 90.0516C86.2503 88.4524 85.6514 85.1542 85.5516 81.5561C85.5516 75.6593 85.5516 75.5594 81.5595 73.3606C79.0644 71.9613 70.581 69.7625 58.6045 67.4637C44.0331 64.6652 36.2484 63.6658 24.6711 63.266C12.6946 62.8662 9.40105 62.4664 7.90399 61.1671C6.60653 59.9678 6.30712 58.7684 6.70634 57.0693C7.10555 55.6701 8.60262 53.2714 9.99988 51.6722C11.4969 50.0731 14.9901 47.3745 17.6848 45.5755C20.4793 43.8764 25.1701 41.3778 28.1642 40.1784C31.1584 38.979 37.945 36.8802 43.1349 35.5809C48.3247 34.2816 57.3071 32.4825 63.0957 31.683C68.8843 30.7834 80.761 29.3842 89.5438 28.5846C98.3266 27.6851 106.91 26.4858 108.507 25.986C110.203 25.4863 112.499 24.187 113.796 23.0876C115.293 21.6883 115.992 19.8893 115.992 17.5905C115.992 15.5916 115.193 11.3939 114.195 8.09565L112.299 2.09887Z" fill="#EB3F3F"/>
</svg>
