<svg width="50" height="51" viewBox="0 0 50 51" fill="none" xmlns="http://www.w3.org/2000/svg">
<path d="M25 3.10401C19.6802 3.10127 14.5331 4.99232 10.4804 8.43852C6.4277 11.8847 3.73409 16.661 2.88187 21.9121C2.02966 27.1633 3.07451 32.5463 5.82932 37.0973C8.58413 41.6483 12.869 45.07 17.9166 46.7498C19.0416 46.9582 19.4479 46.2707 19.4479 45.7082V41.9061C13.1979 43.2603 11.9062 38.9061 11.9062 38.9061C11.4928 37.5284 10.5934 36.3476 9.37498 35.5832C7.34373 34.1978 9.53123 34.2186 9.53123 34.2186C10.2408 34.3179 10.9183 34.5778 11.5122 34.9786C12.1061 35.3793 12.6007 35.9103 12.9583 36.5311C14.9583 39.9582 18.1666 38.9686 19.4791 38.3957C19.5828 37.2577 20.0888 36.194 20.9062 35.3957C15.9271 34.8332 10.6979 32.9165 10.6979 24.3332C10.6649 22.1065 11.4934 19.9531 13.0104 18.3228C12.3212 16.392 12.3995 14.2704 13.2291 12.3957C13.2291 12.3957 15.1041 11.7915 19.3854 14.6873C23.0546 13.6873 26.9245 13.6873 30.5937 14.6873C34.875 11.7915 36.75 12.3957 36.75 12.3957C37.5733 14.2718 37.6516 16.391 36.9687 18.3228C38.4829 19.9541 39.3077 22.1077 39.2708 24.3332C39.2708 32.9373 34.0625 34.8228 29.0521 35.3853C29.5897 35.93 30.0038 36.584 30.2662 37.303C30.5286 38.0219 30.6332 38.789 30.5729 39.5519V45.6978C30.5729 46.4373 30.9791 46.9894 32.1146 46.7394C37.1571 45.0531 41.4351 41.6277 44.1834 37.0761C46.9318 32.5245 47.9711 27.1436 47.1155 21.8959C46.2598 16.6482 43.5651 11.8761 39.5133 8.43317C35.4615 4.9903 30.317 3.10127 25 3.10401Z" stroke="white" stroke-width="1.04167" stroke-linecap="round" stroke-linejoin="round"/>
</svg>
