<svg width="50" height="51" viewBox="0 0 50 51" fill="none" xmlns="http://www.w3.org/2000/svg">
<path d="M18.75 16.125C18.75 16.434 18.6584 16.7361 18.4867 16.9931C18.315 17.25 18.071 17.4503 17.7854 17.5686C17.4999 17.6868 17.1858 17.7178 16.8827 17.6575C16.5796 17.5972 16.3012 17.4484 16.0826 17.2299C15.8641 17.0113 15.7153 16.7329 15.655 16.4298C15.5947 16.1267 15.6257 15.8126 15.7439 15.5271C15.8622 15.2415 16.0625 14.9975 16.3194 14.8258C16.5764 14.6541 16.8785 14.5625 17.1875 14.5625C17.6019 14.5625 17.9993 14.7271 18.2924 15.0201C18.5854 15.3132 18.75 15.7106 18.75 16.125ZM17.1875 21.5938C16.9803 21.5938 16.7816 21.6761 16.6351 21.8226C16.4886 21.9691 16.4062 22.1678 16.4062 22.375V34.875C16.4062 35.0822 16.4886 35.2809 16.6351 35.4274C16.7816 35.5739 16.9803 35.6562 17.1875 35.6562C17.3947 35.6562 17.5934 35.5739 17.7399 35.4274C17.8864 35.2809 17.9688 35.0822 17.9688 34.875V22.375C17.9688 22.1678 17.8864 21.9691 17.7399 21.8226C17.5934 21.6761 17.3947 21.5938 17.1875 21.5938ZM28.9062 21.5938C28.0181 21.5928 27.1402 21.7824 26.3315 22.1496C25.5229 22.5169 24.8024 23.0533 24.2188 23.7227V22.375C24.2188 22.1678 24.1364 21.9691 23.9899 21.8226C23.8434 21.6761 23.6447 21.5938 23.4375 21.5938C23.2303 21.5938 23.0316 21.6761 22.8851 21.8226C22.7386 21.9691 22.6562 22.1678 22.6562 22.375V34.875C22.6562 35.0822 22.7386 35.2809 22.8851 35.4274C23.0316 35.5739 23.2303 35.6562 23.4375 35.6562C23.6447 35.6562 23.8434 35.5739 23.9899 35.4274C24.1364 35.2809 24.2188 35.0822 24.2188 34.875V27.8438C24.2188 26.6005 24.7126 25.4083 25.5917 24.5292C26.4708 23.6501 27.663 23.1562 28.9062 23.1562C30.1495 23.1562 31.3417 23.6501 32.2208 24.5292C33.0999 25.4083 33.5938 26.6005 33.5938 27.8438V34.875C33.5938 35.0822 33.6761 35.2809 33.8226 35.4274C33.9691 35.5739 34.1678 35.6562 34.375 35.6562C34.5822 35.6562 34.7809 35.5739 34.9274 35.4274C35.0739 35.2809 35.1562 35.0822 35.1562 34.875V27.8438C35.1511 26.1877 34.491 24.601 33.32 23.43C32.149 22.259 30.5623 21.5989 28.9062 21.5938ZM43.75 9.09375V41.9062C43.75 42.5279 43.5031 43.124 43.0635 43.5635C42.624 44.0031 42.0279 44.25 41.4062 44.25H8.59375C7.97215 44.25 7.37601 44.0031 6.93647 43.5635C6.49693 43.124 6.25 42.5279 6.25 41.9062V9.09375C6.25 8.47215 6.49693 7.87601 6.93647 7.43647C7.37601 6.99693 7.97215 6.75 8.59375 6.75H41.4062C42.0279 6.75 42.624 6.99693 43.0635 7.43647C43.5031 7.87601 43.75 8.47215 43.75 9.09375ZM42.1875 9.09375C42.1875 8.88655 42.1052 8.68784 41.9587 8.54132C41.8122 8.39481 41.6134 8.3125 41.4062 8.3125H8.59375C8.38655 8.3125 8.18784 8.39481 8.04132 8.54132C7.89481 8.68784 7.8125 8.88655 7.8125 9.09375V41.9062C7.8125 42.1134 7.89481 42.3122 8.04132 42.4587C8.18784 42.6052 8.38655 42.6875 8.59375 42.6875H41.4062C41.6134 42.6875 41.8122 42.6052 41.9587 42.4587C42.1052 42.3122 42.1875 42.1134 42.1875 41.9062V9.09375Z" fill="white"/>
</svg>
