<svg width="50" height="51" viewBox="0 0 50 51" fill="none" xmlns="http://www.w3.org/2000/svg">
<path d="M45.3125 37.4792V13.5208C45.3125 12.9683 45.093 12.4384 44.7023 12.0477C44.3116 11.657 43.7817 11.4375 43.2292 11.4375H6.77083C6.2183 11.4375 5.68839 11.657 5.29769 12.0477C4.90699 12.4384 4.6875 12.9683 4.6875 13.5208V37.4792C4.6875 38.0317 4.90699 38.5616 5.29769 38.9523C5.68839 39.343 6.2183 39.5625 6.77083 39.5625H43.2292C43.7817 39.5625 44.3116 39.343 44.7023 38.9523C45.093 38.5616 45.3125 38.0317 45.3125 37.4792Z" stroke="white" stroke-width="1.04167" stroke-linecap="round" stroke-linejoin="round"/>
<path d="M45.3125 16.105L25 25.4998L4.6875 16.105" stroke="white" stroke-width="1.04167" stroke-linecap="round" stroke-linejoin="round"/>
</svg>
