<svg width="50" height="51" viewBox="0 0 50 51" fill="none" xmlns="http://www.w3.org/2000/svg">
<path d="M25 3.104C21.1097 3.10818 17.2874 4.12475 13.9089 6.05376C10.5305 7.98277 7.71225 10.7578 5.73127 14.106C3.75029 17.4543 2.67478 21.2604 2.61049 25.1502C2.54621 29.04 3.49535 32.8796 5.3646 36.2915L2.60419 47.8957L14.2084 45.1353C17.2013 46.7771 20.53 47.713 23.9401 47.8715C27.3501 48.03 30.7513 47.4068 33.8836 46.0496C37.0159 44.6925 39.7966 42.6372 42.013 40.0408C44.2295 37.4445 45.8231 34.3759 46.672 31.0694C47.521 27.7629 47.6028 24.3061 46.9113 20.9631C46.2198 17.6202 44.7732 14.4796 42.6821 11.7812C40.5911 9.08292 37.9108 6.89834 34.8462 5.39443C31.7816 3.89052 28.4137 3.10709 25 3.104ZM13.8021 13.2811H19.9063C20.1825 13.2811 20.4475 13.3908 20.6428 13.5862C20.8382 13.7815 20.9479 14.0465 20.9479 14.3228C20.9138 15.7119 21.1472 17.0947 21.6354 18.3957C21.8457 18.8312 21.8919 19.3279 21.7657 19.7947C21.6394 20.2615 21.3491 20.6672 20.9479 20.9373L18.8125 23.0207C19.7594 24.8697 20.9974 26.5544 22.4792 28.0103C23.9233 29.5162 25.6011 30.779 27.4479 31.7498L29.5313 29.6144C30.5729 28.5728 31.0521 28.5728 32.0729 28.9269C33.3739 29.4152 34.7567 29.6486 36.1459 29.6144C36.418 29.6271 36.6757 29.7409 36.8684 29.9336C37.061 30.1263 37.1748 30.3839 37.1875 30.6561V36.7603C37.1748 37.0324 37.061 37.2901 36.8684 37.4828C36.6757 37.6754 36.418 37.7892 36.1459 37.8019C30.0183 37.535 24.2101 34.9948 19.8542 30.6769C15.5296 26.3256 12.9882 20.5146 12.7292 14.3853C12.7317 14.0985 12.8445 13.8238 13.0444 13.6182C13.2442 13.4125 13.5156 13.2918 13.8021 13.2811Z" stroke="white" stroke-width="1.04167" stroke-linecap="round" stroke-linejoin="round"/>
</svg>
